<?xml version="1.0" encoding="utf-8"?>
<!-- Generator: Adobe Illustrator 23.0.3, SVG Export Plug-In . SVG Version: 6.00 Build 0)  -->
<svg version="1.1" id="" xmlns="http://www.w3.org/2000/svg" xmlns:xlink="http://www.w3.org/1999/xlink" x="0px" y="0px"
	 viewBox="0 0 45.43 45.44" style="enable-background:new 0 0 45.43 45.44;" xml:space="preserve">
<path d="M23.05,45.44c-4.18,0.04-8.14-1.01-11.82-3.12c-0.54-0.31-0.74-0.86-0.5-1.31c0.27-0.51,0.83-0.63,1.46-0.27
	c2.01,1.16,4.13,2.03,6.41,2.44c7.04,1.27,13.3-0.43,18.49-5.37c5.16-4.91,7.24-11.05,6.26-18.1c-1.25-8.98-8.12-15.94-17.07-17.53
	c-8.4-1.49-16.97,2.36-21.39,9.7c-2.57,4.27-3.52,8.9-2.82,13.85c0.16,1.15,0.41,2.28,0.8,3.37c0.06,0.18,0.12,0.37,0.17,0.55
	c0.16,0.57-0.05,1.09-0.51,1.25c-0.51,0.18-1.04-0.12-1.25-0.72c-0.4-1.17-0.74-2.35-0.94-3.58C-0.8,19.55,0.97,13.26,5.57,7.84
	c3.45-4.08,7.92-6.57,13.19-7.47c7.06-1.21,13.39,0.58,18.83,5.2c4.09,3.47,6.59,7.96,7.48,13.24c1.22,7.23-0.69,13.64-5.5,19.13
	c-3.29,3.75-7.5,6-12.36,7.04C25.85,45.27,24.49,45.36,23.05,45.44z"/>
<path d="M26.1,11.48c0.38-0.01,0.63,0.16,0.85,0.39c3.35,3.36,6.71,6.72,10.06,10.09c0.53,0.53,0.53,1.02-0.01,1.56
	c-3.34,3.35-6.69,6.69-10.03,10.04c-0.51,0.51-1.08,0.54-1.47,0.13c-0.38-0.41-0.32-0.92,0.18-1.43c3.02-3.04,6.04-6.08,9.08-9.1
	c0.33-0.33,0.38-0.49,0.02-0.84c-3.02-2.99-6.02-6-9.02-9c-0.58-0.58-0.64-0.96-0.3-1.47C25.63,11.59,25.87,11.5,26.1,11.48z"/>
<path d="M20.44,23.65c-3.73,0-7.45,0-11.18,0c-0.44,0-0.86-0.03-1.11-0.46c-0.36-0.61,0.02-1.3,0.76-1.38
	c0.32-0.04,0.66-0.01,0.98-0.01c7.2,0,14.4,0,21.6,0c0.08,0,0.15,0,0.23,0c0.72,0.02,1.16,0.38,1.14,0.96
	c-0.02,0.56-0.44,0.89-1.14,0.9C27.97,23.65,24.21,23.65,20.44,23.65z"/>
</svg>
