<?xml version="1.0" encoding="utf-8"?>
<!-- Generator: Adobe Illustrator 23.0.3, SVG Export Plug-In . SVG Version: 6.00 Build 0)  -->
<svg version="1.1" id="" xmlns="http://www.w3.org/2000/svg" xmlns:xlink="http://www.w3.org/1999/xlink" x="0px" y="0px"
	 viewBox="0 0 38.53 29.74" style="enable-background:new 0 0 38.53 29.74;" xml:space="preserve">
<path d="M13.36,29.74c-0.44-0.29-0.86-0.48-1.15-0.79c-2.65-2.82-5.28-5.66-7.92-8.49c-1.08-1.16-2.16-2.32-3.22-3.49
	c-1.34-1.47-1.33-1.99,0.06-3.39c0.44-0.45,0.88-0.9,1.33-1.34c0.83-0.8,1.58-0.78,2.37,0.06c2.31,2.46,4.61,4.93,6.91,7.4
	c0.31,0.33,0.62,0.67,0.94,1c0.65,0.68,0.91,0.68,1.59-0.02c0.98-1.01,1.96-2.03,2.94-3.04c5.41-5.61,10.82-11.23,16.25-16.82
	c1.04-1.07,1.92-1.12,2.87-0.06c0.48,0.54,1.02,1.03,1.53,1.54c0.89,0.91,0.91,1.54,0.03,2.45c-5.78,6-11.56,12-17.34,18
	c-2.01,2.09-4.01,4.18-6.04,6.25C14.21,29.3,13.8,29.46,13.36,29.74z"/>
</svg>
