<?xml version="1.0" encoding="utf-8"?>
<!-- Generator: Adobe Illustrator 23.0.3, SVG Export Plug-In . SVG Version: 6.00 Build 0)  -->
<svg version="1.1" id="" xmlns="http://www.w3.org/2000/svg" xmlns:xlink="http://www.w3.org/1999/xlink" x="0px" y="0px"
	 viewBox="0 0 35.71 32.77" style="enable-background:new 0 0 35.71 32.77;" xml:space="preserve">
	<path d="M4.94,32.77c0-2.41,0-4.74,0-7.1c-0.29-0.05-0.55-0.1-0.8-0.14c-2.4-0.45-4.09-2.33-4.11-4.78c-0.04-5.3-0.05-10.6,0-15.9
		C0.06,2.02,2.23,0,5.08,0c8.57,0,17.13,0,25.7,0c2.74,0,4.89,2.04,4.91,4.78c0.04,5.34,0.04,10.68,0,16.02
		c-0.02,2.75-2.16,4.81-4.95,4.81c-4.91,0.01-9.81,0.01-14.72,0c-0.51,0-0.93,0.12-1.36,0.42c-3.05,2.15-6.12,4.27-9.19,6.41
		C5.32,32.53,5.16,32.63,4.94,32.77z M7.02,28.76c0.25-0.16,0.4-0.25,0.55-0.36c2.18-1.52,4.36-3.05,6.55-4.55
		c0.29-0.2,0.69-0.32,1.03-0.32c2.81-0.03,5.62-0.01,8.43-0.01c2.32,0,4.64,0.01,6.96,0c1.88-0.01,3.07-1.14,3.07-2.96
		c0.02-5.17,0.01-10.34,0-15.51c0-0.92-0.3-1.73-1.06-2.34c-0.63-0.51-1.34-0.65-2.11-0.65c-8.36,0-16.72,0.03-25.08-0.02
		c-1.92-0.01-3.3,1.25-3.27,3.25c0.06,5,0.06,10,0,15c-0.02,1.93,1.21,3.33,3.27,3.23c0.54-0.03,1.08,0,1.64,0
		C7.02,25.29,7.02,26.96,7.02,28.76z"/>
	<path d="M26.14,11.85c0,0.7,0,1.35,0,2.04c-5.5,0-10.98,0-16.5,0c0-0.67,0-1.34,0-2.04C15.12,11.85,20.6,11.85,26.14,11.85z"/>
	<path d="M9.62,9.41c0-0.67,0-1.3,0-1.99c5.49,0,10.98,0,16.51,0c0,0.65,0,1.3,0,1.99C20.64,9.41,15.17,9.41,9.62,9.41z"/>
	<path d="M26.15,16.32c0,0.69,0,1.33,0,2.01c-5.51,0-11,0-16.52,0c0-0.67,0-1.32,0-2.01C15.14,16.32,20.61,16.32,26.15,16.32z"/>
</svg>
