<?xml version="1.0" encoding="utf-8"?>
<!-- Generator: Adobe Illustrator 23.0.3, SVG Export Plug-In . SVG Version: 6.00 Build 0)  -->
<svg version="1.1" id="" xmlns="http://www.w3.org/2000/svg" xmlns:xlink="http://www.w3.org/1999/xlink" x="0px" y="0px"
	 viewBox="0 0 36.53 36.65" style="enable-background:new 0 0 36.53 36.65;" xml:space="preserve">
	<path d="M7.53,2.84c0-0.52-0.01-0.96,0-1.39C7.56,0.59,8.17-0.01,8.98,0c0.79,0.02,1.37,0.61,1.39,1.44c0.01,0.43,0,0.87,0,1.35
		c2.14,0,4.25,0,6.44,0c0-0.38,0-0.78,0-1.17c0.01-0.98,0.6-1.63,1.46-1.63c0.84,0.01,1.4,0.63,1.42,1.59c0.01,0.4,0,0.79,0,1.22
		c2.18,0,4.3,0,6.5,0c0-0.46-0.02-0.92,0.01-1.39c0.05-0.85,0.7-1.45,1.49-1.42c0.78,0.03,1.35,0.63,1.37,1.47
		c0.01,0.25,0,0.51,0,0.76c0,0.18,0,0.36,0,0.61c0.64,0,1.23-0.01,1.83,0c2.7,0.05,4.91,1.76,5.58,4.35
		c0.11,0.43,0.16,0.89,0.17,1.34c0.01,0.82-0.58,1.44-1.36,1.49c-0.76,0.04-1.4-0.55-1.47-1.37c-0.17-1.9-1.26-2.9-3.18-2.92
		c-0.5,0-1.01,0-1.57,0c0,0.5,0.01,0.93,0,1.36c-0.02,0.86-0.62,1.5-1.4,1.51c-0.77,0.01-1.42-0.63-1.46-1.47
		c-0.02-0.45,0-0.9,0-1.41c-0.31,0-0.56,0-0.81,0c-1.73,0-3.45,0.01-5.18-0.01c-0.41,0-0.56,0.12-0.52,0.53
		c0.03,0.29,0.01,0.58,0,0.87c-0.03,0.84-0.6,1.44-1.38,1.48c-0.76,0.04-1.44-0.6-1.49-1.43c-0.03-0.45-0.01-0.9-0.01-1.39
		c-2.16,0-4.27,0-6.43,0c0,0.47,0.01,0.92,0,1.37C10.35,7.95,9.75,8.58,8.98,8.6C8.2,8.62,7.56,7.98,7.53,7.14
		c-0.01-0.45,0-0.9,0-1.45c-0.87,0.04-1.7-0.02-2.48,0.15C3.64,6.15,2.86,7.3,2.86,8.89c-0.01,3.69,0,7.37,0,11.06
		c0,3.51,0,7.01,0,10.52c0,2.14,1.17,3.31,3.3,3.32c1.82,0,3.63,0,5.45,0c0.94,0,1.6,0.6,1.59,1.42c-0.01,0.83-0.67,1.41-1.61,1.42
		c-1.94,0.01-3.89,0.02-5.83,0c-3.23-0.03-5.72-2.52-5.73-5.76C0,23.45,0,16.04,0.01,8.63C0.02,5.4,2.49,2.92,5.73,2.84
		C6.31,2.83,6.89,2.84,7.53,2.84z"/>
	<path d="M33.79,16.62c0-0.8-0.01-1.45,0-2.1c0.01-0.87,0.58-1.49,1.38-1.51c0.79-0.02,1.45,0.6,1.45,1.45
		c0,1.21,0.05,2.44-0.1,3.64c-0.26,1.96-2.03,3.44-4.02,3.47c-0.96,0.02-1.93,0.01-2.89,0c-0.89-0.01-1.48-0.56-1.49-1.39
		c-0.01-0.84,0.59-1.43,1.5-1.44c0.67-0.01,1.33,0,2.09,0c-0.65-0.95-1.44-1.62-2.33-2.18c-5.87-3.7-13.47-0.06-14.31,6.83
		c-0.54,4.5,2.54,8.96,6.92,10.04c2.4,0.59,4.68,0.34,6.86-0.81c0.56-0.29,1.1-0.38,1.64,0.01c0.47,0.33,0.67,0.8,0.6,1.37
		c-0.07,0.56-0.42,0.91-0.89,1.15c-2.77,1.45-5.69,1.87-8.71,1.09c-4.34-1.13-7.28-3.86-8.73-8.11c-1.74-5.09,0.4-11.04,4.94-13.94
		c2.08-1.33,4.35-2.03,6.8-1.99c3.48,0.06,6.45,1.39,8.85,3.94C33.46,16.28,33.58,16.39,33.79,16.62z"/>
	<path d="M25.85,22.3c0,0.65,0,1.31,0,1.96c0,0.56-0.21,1.01-0.65,1.37c-0.69,0.56-1.36,1.15-2.04,1.71
		c-0.75,0.62-1.57,0.58-2.13-0.07c-0.54-0.63-0.43-1.49,0.27-2.11c0.04-0.04,0.08-0.08,0.13-0.1c1.33-0.75,1.82-1.88,1.57-3.38
		c-0.08-0.49-0.02-1.01-0.01-1.52c0.02-0.86,0.61-1.49,1.4-1.5c0.77-0.01,1.42,0.63,1.45,1.47C25.86,20.85,25.84,21.57,25.85,22.3
		C25.84,22.3,25.85,22.3,25.85,22.3z"/>
	<path d="M35.19,26.53c-0.8-0.01-1.41-0.61-1.41-1.41c-0.01-0.81,0.65-1.48,1.44-1.46c0.77,0.02,1.41,0.69,1.4,1.46
		C36.61,25.9,35.97,26.54,35.19,26.53z"/>
	<path d="M34.8,30.42c0.01,0.79-0.61,1.43-1.39,1.44c-0.79,0.01-1.44-0.6-1.46-1.38c-0.02-0.79,0.64-1.47,1.43-1.47
		C34.16,29.01,34.8,29.64,34.8,30.42z"/>
</svg>
