<?xml version="1.0" encoding="utf-8"?>
<!-- Generator: Adobe Illustrator 23.0.3, SVG Export Plug-In . SVG Version: 6.00 Build 0)  -->
<svg version="1.1" id="" xmlns="http://www.w3.org/2000/svg" xmlns:xlink="http://www.w3.org/1999/xlink" x="0px" y="0px"
	 viewBox="0 0 49.42 49.42" style="enable-background:new 0 0 49.42 49.42;" xml:space="preserve">
<path d="M49.42,24.69c0.03,13.59-11.06,24.7-24.69,24.73C11.13,49.45,0.03,38.36,0,24.73C-0.03,11.13,11.06,0.03,24.69,0
	C38.29-0.03,49.39,11.06,49.42,24.69z M24.71,46.39c11.99-0.07,21.66-9.65,21.67-21.67c0.01-11.97-9.6-21.66-21.64-21.68
	C12.75,3.03,3.05,12.67,3.05,24.71C3.05,36.71,12.7,46.31,24.71,46.39z"/>
<path d="M25.96,29.52c0,2.13,0,4.26,0,6.39c0,1-0.74,1.67-1.7,1.59c-0.64-0.06-1.22-0.6-1.31-1.25c-0.02-0.11-0.02-0.22-0.02-0.33
	c0-4.26,0-8.52,0-12.78c0-0.74,0.39-1.3,1-1.51c1-0.35,2.03,0.38,2.03,1.46C25.96,25.24,25.96,27.38,25.96,29.52z"/>
<path d="M21.9,14.87c0-1.41,1.13-2.56,2.53-2.56c1.4,0,2.55,1.15,2.55,2.55c0,1.39-1.13,2.52-2.52,2.54
	C23.06,17.42,21.9,16.28,21.9,14.87z"/>
</svg>
