<?xml version="1.0" encoding="utf-8"?>
<!-- Generator: Adobe Illustrator 23.0.3, SVG Export Plug-In . SVG Version: 6.00 Build 0)  -->
<svg version="1.1" id="" xmlns="http://www.w3.org/2000/svg" xmlns:xlink="http://www.w3.org/1999/xlink" x="0px" y="0px"
	 viewBox="0 0 44.47 39.62" style="enable-background:new 0 0 44.47 39.62;" xml:space="preserve">
<path d="M22.23,5.21c0.74-0.76,1.45-1.61,2.27-2.33c4.89-4.3,12.45-3.72,16.66,1.25c3.82,4.5,4.39,11.13,1.47,16.37
	c-1.36,2.44-3.11,4.58-5.13,6.46c-3.48,3.23-7.07,6.33-10.62,9.48c-0.91,0.81-1.83,1.6-2.76,2.38c-1.24,1.03-2.53,1.09-3.72,0.04
	c-4.55-3.99-9.12-7.95-13.58-12.04c-2.38-2.18-4.35-4.74-5.67-7.75c-2.36-5.4-0.94-12.1,2.95-15.82c4.25-4.06,11.36-4.37,15.77-0.47
	C20.72,3.54,21.46,4.41,22.23,5.21z M22.25,36.99c3.32-2.87,6.58-5.67,9.83-8.5c2.38-2.07,4.67-4.25,6.63-6.74
	c2.93-3.73,4.04-7.85,2.49-12.46c-1.69-5.02-6.9-7.8-11.75-6.29c-2.49,0.78-4.2,2.53-5.58,4.65c-0.97,1.48-2.24,1.46-3.25,0.03
	c-0.72-1.02-1.54-1.99-2.44-2.85c-3.71-3.5-9.78-2.74-12.9,1.02c-3.1,3.74-3.43,7.97-1.64,12.37c1.11,2.73,3.07,4.9,5.17,6.89
	c2.87,2.71,5.87,5.29,8.83,7.91C19.13,34.35,20.67,35.63,22.25,36.99z"/>
</svg>
