<?xml version="1.0" encoding="utf-8"?>
<!-- Generator: Adobe Illustrator 23.0.3, SVG Export Plug-In . SVG Version: 6.00 Build 0)  -->
<svg version="1.1" id="Слой_1" xmlns="http://www.w3.org/2000/svg" xmlns:xlink="http://www.w3.org/1999/xlink" x="0px" y="0px"
	 viewBox="0 0 117 42.31" style="enable-background:new 0 0 117 42.31;" xml:space="preserve">
<style type="text/css">
	.st0{fill:#ED2677;}
	.st1{fill:#E00505;}
</style>
	<path class="st0" d="M2.81,34.74c-0.6,0-1.12-0.04-1.56-0.12c-0.44-0.08-0.81-0.18-1.11-0.29v-2.47c0.35,0.12,0.71,0.2,1.08,0.26
		c0.37,0.06,0.78,0.09,1.22,0.09c0.74,0,1.35-0.2,1.84-0.61C4.75,31.19,5,30.42,5,29.29V7.78h3.06v21.4c0,1.74-0.42,3.1-1.25,4.08
		S4.64,34.74,2.81,34.74z M4.75,2.74c0-0.67,0.17-1.16,0.52-1.48C5.62,0.96,6.05,0.8,6.56,0.8c0.46,0,0.87,0.16,1.23,0.47
		c0.36,0.31,0.54,0.81,0.54,1.48c0,0.67-0.18,1.16-0.54,1.48C7.43,4.53,7.02,4.69,6.56,4.69c-0.51,0-0.94-0.16-1.29-0.47
		C4.93,3.91,4.75,3.42,4.75,2.74z"/>
	<path class="st0" d="M30.15,17.06c0,3.08-0.78,5.47-2.35,7.16c-1.56,1.69-3.68,2.54-6.34,2.54c-1.65,0-3.11-0.38-4.4-1.13
		c-1.29-0.75-2.3-1.85-3.04-3.3c-0.74-1.45-1.11-3.2-1.11-5.26c0-3.08,0.77-5.45,2.31-7.12c1.54-1.67,3.65-2.5,6.34-2.5
		c1.67,0,3.15,0.38,4.45,1.13c1.3,0.75,2.31,1.84,3.04,3.27C29.78,13.25,30.15,15,30.15,17.06z M16.08,17.06
		c0,2.2,0.43,3.94,1.3,5.23c0.87,1.29,2.25,1.93,4.15,1.93c1.88,0,3.25-0.64,4.13-1.93c0.88-1.29,1.32-3.03,1.32-5.23
		c0-2.2-0.44-3.93-1.32-5.18c-0.88-1.25-2.27-1.88-4.17-1.88c-1.9,0-3.28,0.63-4.13,1.88C16.51,13.13,16.08,14.86,16.08,17.06z"/>
	<path class="st0" d="M42.17,7.44c1.57,0,2.94,0.35,4.1,1.04c1.16,0.69,2.04,1.67,2.66,2.94c0.61,1.26,0.92,2.74,0.92,4.43v1.84
		H37.1c0.05,2.11,0.58,3.71,1.62,4.81c1.03,1.1,2.47,1.65,4.33,1.65c1.18,0,2.23-0.11,3.14-0.33c0.91-0.22,1.86-0.54,2.83-0.96v2.68
		c-0.95,0.42-1.89,0.72-2.81,0.92c-0.93,0.2-2.03,0.3-3.3,0.3c-1.78,0-3.35-0.36-4.69-1.08c-1.34-0.72-2.39-1.78-3.14-3.2
		c-0.75-1.41-1.13-3.16-1.13-5.25c0-2.04,0.34-3.79,1.02-5.25c0.68-1.46,1.64-2.58,2.88-3.37C39.08,7.83,40.53,7.44,42.17,7.44z
		 M42.14,9.94c-1.46,0-2.61,0.47-3.46,1.41c-0.85,0.94-1.35,2.24-1.51,3.91h9.48c-0.02-1.57-0.39-2.85-1.11-3.84
		S43.69,9.94,42.14,9.94z"/>
	<path class="st0" d="M75,7.44c2.11,0,3.68,0.54,4.72,1.63c1.04,1.09,1.56,2.83,1.56,5.21V41.4h-3.02V14.42
		c0-2.94-1.26-4.41-3.79-4.41c-1.81,0-3.1,0.52-3.87,1.56c-0.78,1.04-1.16,2.56-1.16,4.55V26.4h-3.02V14.42
		c0-2.94-1.27-4.41-3.82-4.41c-1.88,0-3.17,0.58-3.89,1.74s-1.08,2.83-1.08,5v9.66h-3.06V7.78h2.47l0.45,2.54h0.17
		c0.58-0.97,1.36-1.7,2.35-2.17c0.98-0.47,2.03-0.71,3.14-0.71c2.92,0,4.82,1.04,5.7,3.13h0.17c0.63-1.06,1.47-1.85,2.54-2.36
		C72.63,7.69,73.77,7.44,75,7.44z"/>
	<path class="st0" d="M95.74,7.44c0.35,0,0.72,0.02,1.11,0.05c0.39,0.04,0.75,0.09,1.08,0.16l-0.38,2.81
		c-0.3-0.07-0.64-0.13-1.01-0.17c-0.37-0.05-0.71-0.07-1.01-0.07c-0.95,0-1.84,0.26-2.68,0.78c-0.83,0.52-1.5,1.25-2,2.19
		c-0.5,0.94-0.75,2.03-0.75,3.28v9.94h-3.06V7.78h2.5l0.35,3.4h0.14c0.58-1.02,1.35-1.9,2.31-2.64S94.45,7.44,95.74,7.44z"/>
	<path class="st0" d="M104.43,0v13.79c0,0.37-0.02,0.86-0.05,1.46c-0.04,0.6-0.06,1.12-0.09,1.56h0.14c0.14-0.19,0.35-0.45,0.63-0.8
		c0.28-0.35,0.56-0.7,0.85-1.06c0.29-0.36,0.54-0.65,0.75-0.89l5.94-6.29h3.58l-7.54,7.96l8.06,10.67h-3.68l-6.46-8.69l-2.12,1.84
		v6.84h-3.02V0H104.43z"/>

	<path class="st1" d="M11.72,38.51l0,1.62l10.62,0l2,1.06l-12.62,0l0,1.13l-0.49,0l-0.36-1.13l-0.37,0c-0.83,0-1.43-0.18-1.79-0.54
		c-0.36-0.36-0.55-0.88-0.55-1.54c0-0.25,0.02-0.48,0.07-0.7c0.04-0.22,0.09-0.4,0.15-0.55l0.83,0.28
		c-0.04,0.13-0.08,0.28-0.12,0.44c-0.04,0.17-0.06,0.34-0.06,0.52c0,0.35,0.12,0.61,0.35,0.79s0.61,0.26,1.11,0.26h0.42l0-1.62
		H11.72z"/>
	<path class="st1" d="M14.11,31.75c1.06,0,1.89,0.27,2.47,0.81c0.58,0.54,0.88,1.27,0.88,2.19c0,0.57-0.13,1.07-0.39,1.52
		s-0.64,0.79-1.14,1.05c-0.5,0.26-1.11,0.38-1.82,0.38c-1.06,0-1.88-0.26-2.46-0.8c-0.58-0.53-0.86-1.26-0.87-2.19
		c0-0.58,0.13-1.09,0.39-1.54c0.26-0.45,0.64-0.8,1.13-1.05C12.79,31.88,13.39,31.75,14.11,31.75z M14.11,36.61
		c0.76,0,1.36-0.15,1.81-0.45c0.44-0.3,0.67-0.78,0.67-1.43c0-0.65-0.22-1.12-0.67-1.43c-0.44-0.3-1.05-0.46-1.81-0.46
		c-0.76,0-1.36,0.15-1.79,0.46c-0.43,0.3-0.65,0.79-0.65,1.44s0.22,1.13,0.65,1.43C12.75,36.46,13.35,36.61,14.11,36.61z"/>
	<path class="st1" d="M10.78,27.09c0-0.12,0.01-0.25,0.02-0.38c0.01-0.14,0.03-0.26,0.05-0.37l0.97,0.13
		c-0.02,0.1-0.04,0.22-0.06,0.35s-0.02,0.24-0.02,0.35c0,0.33,0.09,0.64,0.27,0.92c0.18,0.29,0.43,0.52,0.76,0.69
		s0.7,0.26,1.13,0.26l3.43,0l0,1.06l-6.43,0l0-0.86l1.18-0.12v-0.05c-0.35-0.2-0.66-0.47-0.91-0.8
		C10.91,27.92,10.78,27.53,10.78,27.09z"/>

	<path class="st1" d="M23.95,41.19c-0.57,0-1.08-0.12-1.52-0.35c-0.44-0.23-0.79-0.59-1.04-1.08c-0.25-0.49-0.38-1.11-0.38-1.87
		c0-0.79,0.13-1.44,0.39-1.93c0.26-0.5,0.62-0.86,1.07-1.09s0.97-0.35,1.55-0.35c0.32,0,0.63,0.03,0.94,0.1
		c0.31,0.07,0.56,0.15,0.75,0.25l-0.32,0.88c-0.19-0.07-0.42-0.14-0.67-0.2c-0.26-0.06-0.5-0.1-0.72-0.1c-1.26,0-1.9,0.81-1.9,2.44
		c0,0.78,0.15,1.37,0.46,1.78s0.77,0.62,1.37,0.62c0.34,0,0.65-0.04,0.92-0.11c0.27-0.07,0.52-0.16,0.74-0.26v0.94
		c-0.21,0.11-0.45,0.2-0.71,0.26C24.64,41.16,24.32,41.19,23.95,41.19z"/>
	<path class="st1" d="M30.13,34.52c0.12,0,0.25,0.01,0.38,0.02c0.14,0.01,0.26,0.03,0.37,0.05l-0.13,0.97
		c-0.1-0.02-0.22-0.04-0.35-0.06c-0.13-0.02-0.24-0.02-0.35-0.02c-0.33,0-0.64,0.09-0.92,0.27c-0.29,0.18-0.52,0.43-0.69,0.76
		s-0.26,0.7-0.26,1.13v3.43h-1.06v-6.43H28l0.12,1.18h0.05c0.2-0.35,0.47-0.66,0.8-0.91S29.69,34.52,30.13,34.52z"/>
	<path class="st1" d="M34.33,34.52c0.54,0,1.02,0.12,1.42,0.36s0.71,0.58,0.92,1.01c0.21,0.44,0.32,0.95,0.32,1.53v0.64h-4.4
		c0.02,0.73,0.2,1.28,0.56,1.66c0.36,0.38,0.85,0.57,1.49,0.57c0.41,0,0.77-0.04,1.09-0.11c0.32-0.08,0.64-0.19,0.98-0.33v0.92
		c-0.33,0.14-0.65,0.25-0.97,0.32c-0.32,0.07-0.7,0.1-1.14,0.1c-0.62,0-1.16-0.12-1.62-0.37s-0.83-0.62-1.09-1.1
		c-0.26-0.49-0.39-1.09-0.39-1.81c0-0.7,0.12-1.31,0.35-1.81c0.24-0.5,0.57-0.89,1-1.16C33.27,34.66,33.77,34.52,34.33,34.52z
		 M34.32,35.38c-0.5,0-0.9,0.16-1.19,0.49s-0.47,0.77-0.52,1.35h3.28c-0.01-0.54-0.14-0.99-0.38-1.33
		C35.25,35.55,34.86,35.38,34.32,35.38z"/>
	<path class="st1" d="M41.05,34.53c0.78,0,1.36,0.17,1.74,0.52s0.56,0.89,0.56,1.64v4.38h-0.77l-0.2-0.91h-0.05
		c-0.28,0.35-0.58,0.61-0.89,0.78c-0.31,0.17-0.74,0.25-1.27,0.25c-0.58,0-1.07-0.15-1.45-0.46c-0.38-0.31-0.58-0.79-0.58-1.45
		c0-0.64,0.25-1.13,0.76-1.48c0.5-0.35,1.28-0.54,2.33-0.57l1.09-0.04v-0.38c0-0.54-0.12-0.91-0.35-1.12s-0.56-0.31-0.98-0.31
		c-0.34,0-0.66,0.05-0.96,0.15c-0.3,0.1-0.59,0.21-0.85,0.34l-0.32-0.79c0.28-0.15,0.61-0.28,1-0.39
		C40.24,34.59,40.64,34.53,41.05,34.53z M42.31,37.93l-0.95,0.04c-0.8,0.03-1.35,0.16-1.66,0.38c-0.31,0.22-0.46,0.54-0.46,0.95
		c0,0.36,0.11,0.62,0.33,0.79c0.22,0.17,0.5,0.25,0.85,0.25c0.54,0,0.99-0.15,1.35-0.45c0.36-0.3,0.55-0.76,0.55-1.39V37.93z"/>
	<path class="st1" d="M47.5,40.33c0.16,0,0.32-0.01,0.49-0.04s0.3-0.06,0.41-0.1V41c-0.11,0.06-0.27,0.1-0.48,0.14
		s-0.41,0.05-0.6,0.05c-0.34,0-0.65-0.06-0.93-0.17c-0.28-0.12-0.51-0.32-0.69-0.61s-0.26-0.69-0.26-1.21v-3.74h-0.91v-0.5
		l0.92-0.42l0.42-1.37h0.62v1.48h1.86v0.82h-1.86v3.72c0,0.39,0.09,0.68,0.28,0.87C46.96,40.23,47.2,40.33,47.5,40.33z"/>
	<path class="st1" d="M50.22,32.23c0.16,0,0.3,0.05,0.43,0.16c0.12,0.11,0.19,0.28,0.19,0.51c0,0.23-0.06,0.4-0.19,0.51
		c-0.12,0.11-0.27,0.16-0.43,0.16c-0.18,0-0.32-0.05-0.44-0.16c-0.12-0.11-0.18-0.28-0.18-0.51c0-0.23,0.06-0.4,0.18-0.51
		C49.9,32.28,50.05,32.23,50.22,32.23z M50.74,34.64v6.43h-1.06v-6.43H50.74z"/>
	<path class="st1" d="M54.19,41.07l-2.44-6.43h1.13l1.37,3.79c0.06,0.18,0.13,0.37,0.2,0.59c0.07,0.22,0.14,0.42,0.19,0.62
		c0.06,0.2,0.1,0.36,0.12,0.49h0.05c0.02-0.13,0.07-0.29,0.13-0.5c0.06-0.2,0.13-0.41,0.2-0.62c0.07-0.21,0.14-0.41,0.2-0.58
		l1.37-3.79h1.13l-2.45,6.43H54.19z"/>
	<path class="st1" d="M61.36,34.52c0.54,0,1.02,0.12,1.42,0.36s0.71,0.58,0.92,1.01c0.21,0.44,0.32,0.95,0.32,1.53v0.64h-4.4
		c0.02,0.73,0.2,1.28,0.56,1.66c0.36,0.38,0.85,0.57,1.49,0.57c0.41,0,0.77-0.04,1.09-0.11c0.32-0.08,0.64-0.19,0.98-0.33v0.92
		c-0.33,0.14-0.65,0.25-0.97,0.32c-0.32,0.07-0.7,0.1-1.14,0.1c-0.62,0-1.16-0.12-1.62-0.37s-0.83-0.62-1.09-1.1
		c-0.26-0.49-0.39-1.09-0.39-1.81c0-0.7,0.12-1.31,0.35-1.81c0.24-0.5,0.57-0.89,1-1.16C60.29,34.66,60.79,34.52,61.36,34.52z
		 M61.35,35.38c-0.5,0-0.9,0.16-1.19,0.49s-0.47,0.77-0.52,1.35h3.28c-0.01-0.54-0.14-0.99-0.38-1.33
		C62.27,35.55,61.88,35.38,61.35,35.38z"/>
</svg>
