<?xml version="1.0" encoding="utf-8"?>
<!-- Generator: Adobe Illustrator 23.0.3, SVG Export Plug-In . SVG Version: 6.00 Build 0)  -->
<svg version="1.1" id="" xmlns="http://www.w3.org/2000/svg" xmlns:xlink="http://www.w3.org/1999/xlink" x="0px" y="0px"
	 viewBox="0 0 50.69 32.58" style="enable-background:new 0 0 50.69 32.58;" xml:space="preserve">
<path d="M25.3,32.58c-7.56,0-15.13,0-22.69,0c-1.89,0-2.61-0.7-2.61-2.58c0-9.15,0-18.29,0-27.44C0,0.73,0.72,0,2.54,0
	c15.2,0,30.41,0,45.61,0c1.81,0,2.53,0.73,2.53,2.58c0,9.15,0,18.29,0,27.44c0,1.84-0.72,2.57-2.54,2.57
	C40.53,32.58,32.91,32.58,25.3,32.58z M20.14,15.43C14.1,20.2,8.11,24.93,2.13,29.69c-0.24,0.19-0.31,0.6-0.46,0.9
	c0.3,0.11,0.6,0.32,0.9,0.32c15.18,0.02,30.36,0.02,45.54,0c0.3,0,0.6-0.21,0.9-0.32c-0.15-0.31-0.23-0.71-0.47-0.9
	c-3.75-3-7.51-5.97-11.28-8.95c-2.24-1.77-4.48-3.54-6.72-5.3c-1.49,0.93-2.95,1.82-4.38,2.75c-0.58,0.38-1.08,0.37-1.66-0.01
	C23.08,17.24,21.62,16.35,20.14,15.43z M1.78,1.74C1.77,1.81,1.76,1.88,1.74,1.95C1.87,2.05,2,2.17,2.14,2.26
	c7.58,4.73,15.16,9.46,22.73,14.21c0.4,0.25,0.66,0.17,1-0.04C33.41,11.71,40.95,7,48.48,2.3c0.17-0.11,0.32-0.25,0.48-0.38
	c-0.02-0.06-0.04-0.12-0.07-0.18C33.2,1.74,17.49,1.74,1.78,1.74z M1.68,27.94C7.39,23.39,13,18.94,18.66,14.45
	C12.95,10.89,7.36,7.4,1.68,3.86C1.68,11.91,1.68,19.84,1.68,27.94z M31.98,14.48c5.7,4.51,11.32,8.94,17,13.44
	c0-8.03,0-15.94,0-23.95C43.29,7.49,37.68,10.95,31.98,14.48z"/>
</svg>
