<?xml version="1.0" encoding="utf-8"?>
<!-- Generator: Adobe Illustrator 23.0.3, SVG Export Plug-In . SVG Version: 6.00 Build 0)  -->
<svg version="1.1" id="" xmlns="http://www.w3.org/2000/svg" xmlns:xlink="http://www.w3.org/1999/xlink" x="0px" y="0px"
	 viewBox="0 0 43.09 43.23" style="enable-background:new 0 0 43.09 43.23;" xml:space="preserve">
<path d="M14.04,16.55c0.82,1.89,2.11,3.6,3.52,5.21c2.48,2.85,5.21,5.39,8.61,7.13c0.4,0.2,0.61,0.18,0.93-0.14
	c1.05-1.07,2.12-2.13,3.22-3.14c1.56-1.42,3.85-1.52,5.38-0.08c2.2,2.07,4.33,4.22,6.39,6.42c1.34,1.44,1.32,3.77,0.01,5.25
	c-1.38,1.55-2.82,3.06-4.35,4.45c-1.53,1.39-3.45,1.7-5.47,1.52c-3.87-0.33-7.32-1.88-10.65-3.74C14.34,35.4,8.66,29.66,4.32,22.6
	c-2.03-3.3-3.62-6.82-4.18-10.7c-0.42-2.9,0.08-5.54,2.41-7.61c1.14-1.01,2.14-2.17,3.28-3.17c1.69-1.48,3.99-1.51,5.62,0.02
	c2.15,2.02,4.23,4.13,6.25,6.29c1.36,1.45,1.26,3.74-0.07,5.3c-0.56,0.65-1.18,1.24-1.76,1.87C15.28,15.21,14.7,15.84,14.04,16.55z
	 M2.2,10.19c0.03,0.43,0.05,0.86,0.11,1.28c0.36,2.62,1.27,5.07,2.48,7.4C8.94,26.88,14.9,33.18,22.78,37.6
	c2.62,1.47,5.36,2.69,8.34,3.28c2.57,0.52,4.79,0.06,6.51-2.11c0.69-0.87,1.54-1.61,2.32-2.41c1.22-1.23,1.23-2.33,0-3.56
	c-1.76-1.76-3.52-3.51-5.29-5.26c-1.1-1.08-2.14-1.07-3.24,0.03c-1.08,1.07-2.15,2.16-3.23,3.23c-0.79,0.78-1.47,0.87-2.44,0.39
	c-2.13-1.04-4.08-2.37-5.85-3.94c-3.19-2.84-6.08-5.93-7.89-9.87c-0.51-1.11-0.4-1.73,0.48-2.59c1.07-1.05,2.16-2.08,3.2-3.16
	c1.04-1.08,1.05-2.08,0-3.16c-1.77-1.83-3.57-3.65-5.39-5.43C9.12,1.89,8.07,1.94,6.89,3.1C5.92,4.05,5,5.04,4.01,5.96
	C2.78,7.11,2.12,8.48,2.2,10.19z"/>
</svg>
