<?xml version="1.0" encoding="utf-8"?>
<!-- Generator: Adobe Illustrator 23.0.3, SVG Export Plug-In . SVG Version: 6.00 Build 0)  -->
<svg version="1.1" id="" xmlns="http://www.w3.org/2000/svg" xmlns:xlink="http://www.w3.org/1999/xlink" x="0px" y="0px"
	 viewBox="0 0 39.42 39.33" style="enable-background:new 0 0 39.42 39.33;" xml:space="preserve">
<path d="M0,39.32c0.51-9,4.94-15.12,13.21-18.62c-3.45-2.61-5.1-6.09-4.76-10.43c0.24-3.02,1.59-5.53,3.88-7.49
	c4.66-3.99,11.3-3.59,15.45,0.57c2.48,2.48,3.59,5.53,3.27,9.05c-0.32,3.47-1.96,6.23-4.85,8.35c3.99,1.46,7.17,3.84,9.58,7.22
	c2.41,3.39,3.61,7.17,3.64,11.36c-1.04,0-2.02,0-3.06,0c-0.21-5.25-2.2-9.64-6.34-12.96c-3.03-2.43-6.54-3.62-10.41-3.6
	c-8.18,0.05-16.25,6.44-16.51,16.55C2.12,39.32,1.14,39.32,0,39.32z M19.76,19.68c4.53-0.01,8.28-3.74,8.29-8.27
	c0.02-4.54-3.75-8.32-8.3-8.33c-4.57-0.01-8.3,3.73-8.3,8.31C11.45,15.96,15.19,19.69,19.76,19.68z"/>
</svg>
