<?xml version="1.0" encoding="utf-8"?>
<!-- Generator: Adobe Illustrator 23.0.3, SVG Export Plug-In . SVG Version: 6.00 Build 0)  -->
<svg version="1.1" id="" xmlns="http://www.w3.org/2000/svg" xmlns:xlink="http://www.w3.org/1999/xlink" x="0px" y="0px"
	 viewBox="0 0 41.44 32.32" style="enable-background:new 0 0 41.44 32.32;" xml:space="preserve">

	<path d="M40.39,4.57c0-0.93,0.04-1.78-0.01-2.62c-0.04-0.59-0.53-0.91-1.26-0.92c-1.47-0.01-2.94,0-4.41,0
		c-10.69,0-21.37,0-32.06,0c-1.31,0-1.62,0.31-1.62,1.62c0,9.02,0,18.04,0,27.07c0,1.27,0.32,1.59,1.59,1.59
		c12.07,0,24.14,0,36.21,0c1.27,0,1.59-0.32,1.59-1.59c0-7.19,0-14.38,0-21.56c0-0.43-0.14-1.03,0.53-1.01
		c0.6,0.02,0.48,0.6,0.48,1.01c0,7.21,0,14.42,0,21.63c0,1.74-0.8,2.55-2.53,2.55c-12.11,0-24.23,0-36.34,0
		c-1.74,0-2.55-0.8-2.55-2.54c0-9.11,0-18.21,0-27.32C0,0.84,0.82,0,2.43,0c12.2,0,24.4,0,36.6,0c1.57,0,2.39,0.85,2.4,2.42
		c0.01,0.77,0,1.54,0,2.3c-0.01,0.75-0.09,0.84-0.86,0.84c-5.76,0-11.52,0.01-17.28,0.01c-6.51,0-13.01,0-19.52,0
		c-0.17,0-0.34,0-0.51,0c-0.36,0-0.73-0.03-0.72-0.51C2.57,4.6,2.94,4.57,3.3,4.57c2.32,0,4.65-0.01,6.97-0.01
		c9.79,0,19.58,0,29.37,0C39.87,4.57,40.1,4.57,40.39,4.57z"/>
	<path d="M20.74,18.09c-2.63,0.01-4.78-2.14-4.75-4.75c0.03-2.58,2.2-4.7,4.78-4.66c0.37,0.01,0.8,0,0.8,0.5
		c0,0.5-0.41,0.49-0.79,0.5c-1.97,0.04-3.43,1.32-3.74,3.26c-0.26,1.61,0.8,3.36,2.44,3.92c1.32,0.45,2.58,0.27,3.65-0.66
		c1.05-0.92,1.49-2.1,1.22-3.5c-0.08-0.39-0.1-0.77,0.38-0.85c0.45-0.08,0.54,0.27,0.62,0.63C25.97,15.33,23.71,18.08,20.74,18.09z"
		/>
	<path d="M33.35,17.08c2.3,0,4-1.98,3.66-4.24c-0.02-0.11-0.07-0.23-0.03-0.31c0.12-0.24,0.27-0.45,0.41-0.67
		c0.2,0.18,0.51,0.33,0.57,0.55c0.32,1.26,0.07,2.45-0.62,3.54c-1.13,1.78-3.4,2.6-5.37,1.95c-2.13-0.7-3.43-2.62-3.31-4.84
		c0.12-2.04,1.74-3.9,3.79-4.28c0.41-0.08,0.86-0.09,1.27-0.03c0.19,0.03,0.34,0.29,0.51,0.45c-0.18,0.17-0.34,0.44-0.55,0.49
		c-0.61,0.16-1.29,0.13-1.86,0.37c-1.56,0.65-2.47,2.48-2.11,4.04C30.14,15.91,31.55,17.08,33.35,17.08z"/>
	<path d="M8.03,17.13c2.38-0.04,4.14-2.15,3.66-4.47c-0.08-0.39-0.06-0.71,0.36-0.8c0.45-0.09,0.55,0.27,0.64,0.62
		c0.49,2.07-0.76,4.41-2.81,5.25c-2.15,0.88-4.63,0.1-5.81-1.87c-0.95-1.57-0.99-3.21-0.09-4.8C4.86,9.5,6.27,8.71,8.08,8.7
		c0.38,0,0.85-0.04,0.83,0.53C8.89,9.75,8.46,9.69,8.09,9.69c-1.87,0.04-3.35,1.28-3.65,3.05c-0.31,1.81,0.64,3.49,2.35,4.13
		C7.18,17.01,7.62,17.04,8.03,17.13z"/>
	<path d="M20.72,21.3c-1.26,0-2.51,0-3.77,0c-0.35,0-0.74,0-0.74-0.48c-0.01-0.5,0.39-0.54,0.77-0.54c2.49,0,4.98,0,7.47,0
		c0.38,0,0.78,0.03,0.77,0.54c-0.01,0.53-0.44,0.49-0.8,0.49C23.18,21.3,21.95,21.3,20.72,21.3z"/>
	<path d="M20.71,24.5c-1.26,0-2.52,0-3.77,0c-0.36,0-0.73-0.03-0.72-0.51c0.01-0.47,0.37-0.51,0.73-0.51c2.52,0,5.03,0,7.55,0
		c0.36,0,0.72,0.05,0.72,0.52c0,0.48-0.37,0.5-0.73,0.5C23.23,24.5,21.97,24.5,20.71,24.5z"/>
	<path d="M8.07,21.3c-1.26,0-2.52,0-3.77,0c-0.36,0-0.73-0.03-0.73-0.5c0-0.46,0.37-0.52,0.73-0.52c2.52,0,5.03,0,7.55,0
		c0.37,0,0.72,0.06,0.73,0.52c0.01,0.48-0.36,0.5-0.72,0.5C10.58,21.3,9.32,21.3,8.07,21.3z"/>
	<path d="M33.36,21.3c-1.26,0-2.52,0-3.78,0c-0.36,0-0.73-0.02-0.72-0.5c0.01-0.46,0.36-0.52,0.73-0.52c2.52,0,5.03,0,7.55,0
		c0.36,0,0.73,0.06,0.73,0.52c0,0.48-0.37,0.5-0.73,0.5C35.88,21.3,34.62,21.3,33.36,21.3z"/>
	<path d="M8.07,24.51c-1.23,0-2.47,0-3.7,0c-0.37,0-0.79,0.01-0.81-0.49c-0.01-0.5,0.39-0.53,0.77-0.54c2.49,0,4.98,0,7.47,0
		c0.38,0,0.78,0.03,0.77,0.54c-0.01,0.51-0.43,0.49-0.8,0.49C10.53,24.51,9.3,24.51,8.07,24.51z"/>
	<path d="M33.37,24.5c-1.25,0-2.51,0-3.76,0c-0.36,0-0.73-0.02-0.74-0.49c-0.01-0.5,0.38-0.54,0.76-0.54c2.47,0,4.93,0,7.4,0
		c0.09,0,0.2-0.03,0.25,0.01c0.21,0.16,0.4,0.34,0.6,0.52c-0.21,0.17-0.41,0.47-0.62,0.47C35.97,24.52,34.67,24.5,33.37,24.5z"/>
	<path d="M18.71,27.7c-0.62,0-1.23,0-1.85,0c-0.36,0-0.7-0.11-0.63-0.51c0.04-0.2,0.37-0.49,0.58-0.49c1.25-0.05,2.51-0.05,3.76,0
		C20.79,26.7,21,27,21.22,27.17c-0.22,0.18-0.42,0.48-0.66,0.51C19.95,27.75,19.33,27.7,18.71,27.7
		C18.71,27.7,18.71,27.7,18.71,27.7z"/>
	<path d="M31.3,27.7c-0.59,0-1.19,0-1.78,0c-0.36,0-0.7-0.11-0.63-0.51c0.04-0.2,0.37-0.48,0.58-0.49c1.25-0.05,2.5-0.03,3.76-0.03
		c0.36,0,0.69,0.17,0.6,0.55c-0.04,0.19-0.39,0.43-0.62,0.46C32.58,27.74,31.94,27.7,31.3,27.7z"/>
	<path d="M6.1,27.7c-0.64,0-1.28,0.04-1.91-0.02c-0.23-0.02-0.43-0.3-0.64-0.46c0.21-0.18,0.42-0.51,0.64-0.52
		c1.23-0.05,2.47-0.05,3.7,0c0.23,0.01,0.45,0.32,0.67,0.5c-0.23,0.17-0.44,0.45-0.68,0.48C7.3,27.75,6.7,27.7,6.1,27.7z"/>
	<path d="M11.65,10.26c-0.34,0.26-0.6,0.55-0.68,0.51c-0.28-0.15-0.49-0.42-0.73-0.65c0.16-0.16,0.37-0.48,0.48-0.45
		C11,9.75,11.24,9.99,11.65,10.26z"/>
	<path d="M24.31,10.34c-0.38,0.23-0.64,0.48-0.75,0.43c-0.27-0.14-0.46-0.41-0.68-0.63c0.18-0.16,0.41-0.49,0.53-0.46
		C23.69,9.76,23.91,10.02,24.31,10.34z"/>
	<path d="M36.25,11.03c-0.32-0.38-0.57-0.6-0.68-0.87c-0.04-0.1,0.26-0.34,0.41-0.51c0.25,0.22,0.53,0.4,0.71,0.66
		C36.74,10.39,36.48,10.68,36.25,11.03z"/>
	<path d="M11.23,2.85c-0.36,0.22-0.59,0.46-0.74,0.42c-0.2-0.06-0.33-0.34-0.49-0.53c0.18-0.14,0.36-0.38,0.55-0.38
		C10.73,2.35,10.91,2.6,11.23,2.85z"/>
	<path d="M7.28,3.5C7.04,3.19,6.77,2.98,6.8,2.83c0.04-0.2,0.3-0.44,0.5-0.47c0.12-0.02,0.43,0.28,0.44,0.45
		C7.76,2.98,7.51,3.18,7.28,3.5z"/>
	<path d="M4.09,2.09C4.3,2.44,4.54,2.65,4.51,2.81C4.47,2.99,4.2,3.13,4.04,3.29C3.87,3.11,3.62,2.95,3.58,2.74
		C3.55,2.6,3.83,2.41,4.09,2.09z"/>
</svg>
